<svg width="37" height="40" viewBox="0 0 37 40" fill="none" xmlns="http://www.w3.org/2000/svg">
<path d="M18.5001 4C12.3697 4 7.4001 9.37258 7.4001 16V23.1716L6.09196 24.5858C5.56286 25.1578 5.40458 26.018 5.69093 26.7654C5.97727 27.5127 6.65185 28 7.4001 28H29.6001C30.3484 28 31.0229 27.5127 31.3093 26.7654C31.5956 26.018 31.4373 25.1578 30.9083 24.5858L29.6001 23.1716V16C29.6001 9.37258 24.6305 4 18.5001 4Z" fill="black"/>
<path d="M18.5 36C15.4349 36 12.95 33.3137 12.95 30H24.05C24.05 33.3137 21.5652 36 18.5 36Z" fill="black"/>
</svg>
